<?xml version="1.0" encoding="UTF-8"?>
<svg id="Layer_1" data-name="Layer 1" xmlns="http://www.w3.org/2000/svg" xmlns:xlink="http://www.w3.org/1999/xlink" viewBox="0 0 2700 1860">
  <defs>
    <style>
      .cls-1 {
        fill: #fff;
      }

      .cls-2 {
        fill: none;
      }

      .cls-3 {
        fill: url(#linear-gradient);
      }

      .cls-4 {
        fill: #298900;
      }
    </style>
    <linearGradient id="linear-gradient" x1="2624.6" y1="929.34" x2="84.5" y2="929.34" gradientUnits="userSpaceOnUse">
      <stop offset="0" stop-color="#fff"/>
      <stop offset="1" stop-color="#aaa"/>
    </linearGradient>
  </defs>
  <polygon class="cls-1" points="1389.02 955.42 1389.02 955.98 1388.74 955.98 1389.02 955.42"/>
  <polygon class="cls-1" points="1389.02 955.42 1389.02 955.98 1388.74 955.98 1389.02 955.42"/>
  <path class="cls-1" d="M1373.02,913.91v.09s-.05.02-.07.03l.07-.12Z"/>
  <g>
    <ellipse class="cls-3" cx="1351.21" cy="929.34" rx="1262.41" ry="771.7"/>
    <path d="M1351.22,1706.04c-698.86,0-1267.41-348.43-1267.41-776.7S652.36,152.64,1351.22,152.64s1267.4,348.43,1267.4,776.7-568.55,776.7-1267.4,776.7ZM1351.22,162.64c-693.34,0-1257.41,343.94-1257.41,766.7s564.07,766.7,1257.41,766.7,1257.4-343.95,1257.4-766.7S2044.55,162.64,1351.22,162.64Z"/>
    <g>
      <ellipse class="cls-4" cx="1351.21" cy="929.55" rx="1047.34" ry="592.77"/>
      <path d="M1351.22,1527.32c-580.26,0-1052.34-268.15-1052.34-597.77S770.95,331.78,1351.22,331.78s1052.34,268.16,1052.34,597.77-472.08,597.77-1052.34,597.77ZM1351.22,341.78c-574.75,0-1042.34,263.67-1042.34,587.77s467.6,587.77,1042.34,587.77,1042.34-263.67,1042.34-587.77-467.6-587.77-1042.34-587.77Z"/>
    </g>
    <path class="cls-1" d="M1204.19,694.63v1.7h-3.9c2.5-1.1,3.9-1.7,3.9-1.7Z"/>
    <path class="cls-1" d="M1822.65,450.16h55.8v-22.9h-414.9v22.9h57.5c14,5.3,32.8,16.5,45.9,39.6v150.4c-83.2-5.9-144.3,6.1-198.7,56.2-54.5,50.2-128.5,206-166,273.2-20.1,36.2-64.86,106.8-123.8,99.57-30.29-3.72-101.7-17.87-100.8-148.97.5-80,70.72-156.21,138.67-190.18,40.85-20.43,71.63-28.72,81.63-33.22,2.5-1.1,3.9-1.7,3.9-1.7v-21.3h-75.3v-175.5c12.9-29,34.5-42.2,50.1-48.1h55.8v-22.9h-414.8v22.9h57.4c15,5.7,35.4,18,48.5,44.5v861.9c-11.3,26.3-29.5,40.1-44.6,47.2h-61.3v23h414.8v-23h-64.8c-13.6-6.4-29.8-18.3-41.1-39.9v-174c.3.1.5.1.8.1,99.6,4.3,203.4-11.9,283.4-199.1,80-187.3,154.1-211.9,154.1-211.9l1.4-2.3.7-1.2v.9c66.7-23.7,174.5,41,146.8,208.5-11.4,69.2-84.6,120.7-146.8,152.6-36.9,18.9-69.8,31-83.7,35.7h-19.7v23h103.4v165.8c-11.3,22.9-28,35.2-42,41.8h-61.4v23h414.9v-23h-64.8c-14.7-7-32.5-20.2-43.7-45.4V504.26c12.6-33.2,36-47.8,52.7-54.1ZM1726.95,1196.16h-2.8l2.8-5.6v5.6Z"/>
    <ellipse class="cls-2" cx="1348.68" cy="929.96" rx="1258.99" ry="769.78"/>
    <g>
      <path class="cls-4" d="M731.67,314.27l10.31-3.54,10.67,31.09,28.1-9.64-10.68-31.09,10.31-3.54,26.04,75.84-10.31,3.54-12.4-36.12-28.1,9.64,12.4,36.12-10.31,3.54-26.04-75.84Z"/>
      <path class="cls-4" d="M917.08,292.31l-11.91,32.49c-5.47,14.97-9.73,24.12-23.83,27.78-14.37,3.73-24.22-4.48-26.72-14.13-2.56-9.88,1.45-17.89,13.95-28.98,7.89-7.12,12.7-12.22,10.9-19.14-1.27-4.89-5.37-8.76-11.3-7.23-5.45,1.41-8.18,5.99-6.57,12.21,1.19,4.6,5.72,7.68,12.3,11.32l56.04,32.21-14,3.63-49.61-28.65c-7.09-4.02-12.55-8.19-14.41-15.37-2.54-9.81,2.23-20.03,14.31-23.16,11.38-2.95,20.42,3.16,22.82,12.41,2.21,8.5-2.13,15.2-13.53,25.76-10.58,9.25-11.88,15.16-10.36,21.04,1.62,6.22,7.86,10.5,14.74,8.72,8.19-2.12,11.68-6.78,17.37-22.87l8.81-25.17,11.02-2.86Z"/>
      <path class="cls-4" d="M1015.65,242.67l2.01,10.83c-3.63-1.47-7.17-2.44-10.62-2.89-3.45-.45-6.83-.38-10.14.24-5.04.93-8.79,2.84-11.29,5.72-2.48,2.89-3.36,6.31-2.62,10.29.64,3.49,2.09,5.97,4.36,7.44,2.26,1.47,6.11,2.34,11.6,2.6l5.82.23c7.71.36,13.61,2.07,17.68,5.14,4.06,3.07,6.68,7.79,7.87,14.17,1.39,7.5.12,13.65-3.79,18.46-3.93,4.8-10.31,8.03-19.19,9.67-3.7.68-7.49.98-11.36.88-3.89-.1-7.85-.6-11.91-1.48l-2.11-11.36c4.53,1.82,8.71,2.99,12.54,3.53,3.83.53,7.58.45,11.23-.23,5.39-1,9.36-2.98,11.9-5.95,2.55-2.96,3.42-6.61,2.62-10.94-.73-3.95-2.31-6.76-4.77-8.46-2.44-1.7-6.32-2.64-11.63-2.82l-5.96-.26c-7.63-.3-13.41-1.81-17.33-4.54-3.94-2.73-6.42-6.91-7.46-12.55-1.3-7.04,0-13.12,3.96-18.24,3.96-5.12,9.85-8.41,17.71-9.86,3.03-.56,6.27-.81,9.75-.74,3.48.07,7.19.44,11.13,1.13Z"/>
      <path class="cls-4" d="M1253.89,263.47l-1.73-49.38,10.89-.38,1.91,54.32c.14,3.9.34,6.68.62,8.33.27,1.66.69,2.92,1.26,3.8,1.22,2.07,2.93,3.61,5.14,4.6s4.84,1.44,7.92,1.33c3.12-.11,5.72-.74,7.83-1.88,2.11-1.15,3.72-2.8,4.82-4.96.51-.91.83-2.2,1-3.85.16-1.66.17-4.41.03-8.28l-1.91-54.43,10.84-.38,1.74,49.38c.29,8.19-.02,14.04-.92,17.52-.9,3.49-2.56,6.41-4.98,8.75-2.29,2.19-4.94,3.86-7.94,5-3.01,1.15-6.41,1.79-10.21,1.92-3.75.13-7.17-.27-10.25-1.2-3.07-.93-5.85-2.41-8.32-4.44-2.54-2.13-4.39-4.94-5.57-8.43-1.15-3.49-1.87-9.27-2.17-17.36Z"/>
      <path class="cls-4" d="M1360.6,211.76l61.16,1.28-.2,9.13-25.08-.52-1.47,71.04-10.91-.23,1.48-71.04-25.19-.52.2-9.13Z"/>
      <path class="cls-4" d="M1482.64,216.26l44.39,3.46-.71,9.1-16.76-1.3-4.81,61.74,16.77,1.31-.71,9.1-44.39-3.46.71-9.11,16.76,1.31,4.81-61.74-16.77-1.3.71-9.11Z"/>
      <path class="cls-4" d="M1596.82,227.22l10.8,1.48-9.69,70.4,38.36,5.28-1.24,9.04-49.17-6.77,10.94-79.44Z"/>
      <path class="cls-4" d="M1708.81,244.78l43.65,8.8-1.81,8.95-16.48-3.32-12.24,60.71,16.48,3.32-1.81,8.95-43.64-8.79,1.8-8.95,16.48,3.32,12.24-60.71-16.48-3.32,1.81-8.96Z"/>
      <path class="cls-4" d="M1812.56,267.44l59.03,16.04-2.39,8.81-24.21-6.58-18.63,68.57-10.52-2.86,18.63-68.57-24.31-6.61,2.39-8.81Z"/>
      <path class="cls-4" d="M1922.54,299.26l10.9,3.83,6.71,39.88,30.13-26.93,11,3.87-38.94,33.17-11.93,33.95-10.28-3.62,11.93-33.95-9.51-50.2Z"/>
    </g>
    <g>
      <path class="cls-4" d="M784.34,1550.35c-2.58.41-5.08.49-7.52.23-2.42-.26-4.87-.89-7.32-1.88-7.71-3.13-12.46-8.66-14.2-16.59-1.76-7.93-.35-17.52,4.21-28.76,4.54-11.17,10.22-19.01,17.04-23.52,6.84-4.5,14.08-5.21,21.75-2.09,2.45,1,4.64,2.25,6.56,3.76,1.92,1.5,3.67,3.31,5.23,5.4l-3.85,9.48c-1.24-2.67-2.8-4.96-4.69-6.87-1.89-1.9-3.99-3.32-6.31-4.27-5.3-2.15-10.21-1.44-14.74,2.14-4.52,3.56-8.68,10.04-12.48,19.41-3.8,9.35-5.31,16.87-4.57,22.59.76,5.71,3.79,9.65,9.08,11.8,2.37.96,4.89,1.42,7.56,1.36,2.68-.05,5.37-.62,8.09-1.68l-3.85,9.48Z"/>
      <path class="cls-4" d="M884.13,1548.94c-4,12.22-8.7,20.77-14.08,25.66-5.38,4.89-11.56,6.19-18.54,3.9-6.98-2.29-11.18-6.98-12.62-14.07-1.44-7.1-.13-16.79,3.9-29.06,4.02-12.24,8.72-20.81,14.1-25.7s11.54-6.2,18.5-3.92c6.99,2.29,11.19,7,12.64,14.13,1.43,7.13.14,16.82-3.89,29.06ZM875.4,1546.08c3.38-10.3,4.86-17.97,4.45-23s-2.74-8.24-6.99-9.63c-4.22-1.39-7.99-.18-11.31,3.62-3.3,3.81-6.66,10.86-10.04,21.16-3.37,10.27-4.84,17.92-4.43,22.95.41,5.02,2.73,8.23,6.95,9.62,4.25,1.39,8.03.2,11.33-3.59,3.31-3.79,6.66-10.83,10.04-21.13Z"/>
      <path class="cls-4" d="M939.23,1526.53l10.79,2.79,6.04,64.33,15.22-58.83,8.22,2.13-18.5,71.46-10.8-2.79-6.04-64.33-15.21,58.82-8.22-2.13,18.5-71.46Z"/>
      <path class="cls-4" d="M1061.41,1556.91l-1.94,9.94c-2.26-2.42-4.6-4.37-7.04-5.86-2.45-1.48-5.02-2.49-7.7-3.01-4.07-.8-7.5-.35-10.29,1.34-2.78,1.69-4.53,4.36-5.25,8.02-.62,3.2-.31,5.79.91,7.78,1.22,1.98,3.85,3.96,7.88,5.92l4.3,2.05c5.68,2.75,9.55,6.09,11.62,10.03,2.07,3.93,2.54,8.82,1.4,14.68-1.34,6.88-4.25,11.78-8.72,14.67-4.47,2.88-10.29,3.62-17.48,2.23-2.99-.59-5.93-1.54-8.81-2.85-2.88-1.32-5.7-3.01-8.47-5.06l2.04-10.43c2.81,3,5.58,5.33,8.28,7s5.55,2.8,8.51,3.38c4.37.85,7.97.41,10.83-1.34,2.85-1.74,4.67-4.6,5.45-8.58.7-3.62.41-6.55-.88-8.78-1.3-2.24-3.92-4.28-7.85-6.12l-4.37-2.11c-5.62-2.68-9.49-5.82-11.56-9.41-2.08-3.59-2.62-7.98-1.6-13.15,1.26-6.47,4.19-11.28,8.79-14.43,4.59-3.14,10.06-4.1,16.43-2.86,2.44.48,4.96,1.3,7.55,2.46s5.25,2.67,8,4.51Z"/>
      <path class="cls-4" d="M1105.36,1607.78l6.13-45.07,8.76,1.19-6.75,49.57c-.48,3.56-.74,6.11-.77,7.66s.11,2.75.43,3.62c.65,2.06,1.79,3.69,3.41,4.9,1.6,1.22,3.64,2,6.11,2.33,2.51.34,4.69.14,6.54-.61,1.87-.74,3.4-2.02,4.61-3.82.55-.75,1.01-1.87,1.39-3.35.37-1.48.8-3.98,1.28-7.51l6.75-49.68,8.73,1.19-6.13,45.07c-1.02,7.48-2.15,12.73-3.4,15.77-1.25,3.05-3.02,5.46-5.31,7.24-2.17,1.67-4.53,2.81-7.11,3.43-2.57.62-5.38.71-8.44.3-3.02-.41-5.68-1.26-8.01-2.54-2.31-1.28-4.31-3.02-5.98-5.21-1.7-2.29-2.75-5.11-3.15-8.44s-.09-8.68.91-16.06Z"/>
      <path class="cls-4" d="M1201.84,1573.5l8.81.69-5.18,65.21,31.31,2.49-.66,8.38-40.14-3.19,5.86-73.57Z"/>
      <path class="cls-4" d="M1282.46,1578.84l49.6,1.25-.21,8.4-20.34-.51-1.64,65.38-8.84-.21,1.64-65.39-20.42-.51.21-8.41Z"/>
      <path class="cls-4" d="M1376.88,1579.86l36.1-1.02.23,8.4-13.63.38,1.6,56.98,13.63-.38.23,8.4-36.1,1.02-.23-8.4,13.63-.39-1.6-56.97-13.63.38-.23-8.4Z"/>
      <path class="cls-4" d="M1462.11,1576.21l11.11-.92,26.88,58.75-5-60.56,8.47-.69,6.07,73.56-11.11.92-26.88-58.75,5,60.55-8.47.7-6.07-73.56Z"/>
      <path class="cls-4" d="M1600.81,1628.96c-1.99,2.77-4.36,5-7.1,6.66s-5.82,2.72-9.21,3.2c-8.17,1.13-14.99-1.3-20.46-7.31-5.47-6.01-9.03-15-10.7-26.98-1.66-11.95-.65-21.58,3.02-28.9s9.61-11.54,17.8-12.69c2.71-.38,5.35-.3,7.95.21s5.17,1.5,7.71,2.95l1.41,10.13c-2.68-2.19-5.32-3.7-7.94-4.56-2.61-.85-5.28-1.08-8.01-.7-5.67.79-9.57,3.87-11.72,9.24-2.14,5.38-2.51,13.06-1.12,23.05,1.42,10.16,3.84,17.48,7.26,21.97,3.43,4.5,7.99,6.36,13.68,5.56,1.93-.26,3.58-.75,4.97-1.46,1.38-.71,2.59-1.69,3.61-2.93l-2.73-19.64-9.36,1.31-1.13-8.13,17.69-2.46,4.38,31.48Z"/>
      <path class="cls-4" d="M1725.92,1534.91l8.55-2.25,16.61,63.26,30.38-7.98,2.13,8.13-38.93,10.21-18.75-71.39Z"/>
      <path class="cls-4" d="M1810.2,1511.09l8.39-2.79,20.62,62.07,29.81-9.89,2.65,7.97-38.2,12.7-23.26-70.05Z"/>
      <path class="cls-4" d="M1954.44,1533.45c-1.56,2.1-3.3,3.91-5.21,5.43-1.92,1.51-4.11,2.77-6.55,3.78-7.71,3.16-14.96,2.52-21.77-1.92-6.8-4.44-12.49-12.28-17.1-23.5-4.58-11.16-6.01-20.73-4.28-28.73,1.73-7.99,6.43-13.55,14.08-16.7,2.44-1.01,4.88-1.64,7.31-1.9,2.43-.27,4.94-.21,7.52.2l3.89,9.47c-2.75-1.04-5.47-1.59-8.15-1.63s-5.18.42-7.49,1.37c-5.29,2.17-8.31,6.11-9.03,11.83-.73,5.72.82,13.26,4.66,22.62,3.83,9.34,8.01,15.77,12.54,19.33,4.54,3.55,9.45,4.25,14.75,2.08,2.36-.98,4.48-2.41,6.35-4.32,1.87-1.9,3.41-4.2,4.61-6.86l3.89,9.46Z"/>
    </g>
  </g>
</svg>